<svg xmlns="http://www.w3.org/2000/svg" width="30" height="30" viewBox="0 0 30 30" fill="none">
  <g clip-path="url(#clip0_666_418)">
    <path d="M4.00702 11.0281C1.47079 15.4292 3.08312 22.1082 5.88778 26.1579C7.28774 28.1826 8.70512 30 10.6465 30C10.6831 30 10.7197 29.9993 10.7573 29.9978C11.6694 29.9614 12.3285 29.6806 12.9658 29.4092C13.6813 29.1043 14.4213 28.7891 15.5819 28.7891C16.6861 28.7891 17.3908 29.0941 18.0722 29.389C18.7438 29.6795 19.4356 29.9801 20.4577 29.9609C22.6445 29.9202 23.9871 27.9591 25.1717 26.229C26.4078 24.4226 27.0278 22.6688 27.2371 21.9985L27.2455 21.9719C27.2854 21.8528 27.2291 21.7227 27.1149 21.6703C27.1117 21.6688 27.1001 21.664 27.0969 21.6626C26.7118 21.5052 23.3339 20.0066 23.2984 15.9223C23.2655 12.604 25.8325 10.8468 26.3473 10.5283L26.3713 10.5134C26.4271 10.4775 26.4659 10.4205 26.4791 10.3554C26.4923 10.2904 26.4785 10.2227 26.4411 10.168C24.6693 7.57504 21.9535 7.18425 20.8601 7.13724C20.7015 7.1214 20.5377 7.11343 20.3733 7.11343C19.0891 7.11343 17.8589 7.59845 16.8705 7.98815C16.1883 8.25717 15.599 8.4895 15.1926 8.4895C14.7359 8.4895 14.1433 8.25432 13.457 7.98206C12.5393 7.61783 11.4992 7.20511 10.398 7.20511C10.3717 7.20511 10.3459 7.2054 10.3204 7.20589C7.76007 7.24357 5.34079 8.70835 4.00702 11.0281Z" fill="#E0DFDF"/>
    <path d="M20.8624 0.000188994C19.3119 0.0633365 17.452 1.01773 16.3404 2.31983C15.3956 3.41429 14.4727 5.23907 14.7158 7.07842C14.7311 7.1935 14.8247 7.28232 14.9405 7.29127C15.0451 7.29944 15.152 7.30357 15.2584 7.30366C16.7744 7.30366 18.4099 6.46494 19.5267 5.11445C20.7023 3.68842 21.2966 1.85832 21.1168 0.219041C21.1027 0.0905824 20.9897 -0.0048274 20.8624 0.000188994Z" fill="#E0DFDF"/>
  </g>
  <defs>
    <clipPath id="clip0_666_418">
      <rect width="30" height="30" fill="white"/>
    </clipPath>
  </defs>
</svg>