<svg xmlns="http://www.w3.org/2000/svg" width="30" height="30" viewBox="0 0 30 30" fill="none">
  <g clip-path="url(#clip0_666_413)">
    <path d="M30 6.19565V23.8044C30 25.4283 28.6891 26.7391 27.0652 26.7391H2.93479C1.31086 26.7391 0 25.4283 0 23.8044V6.19565C0 6.1435 0 6.0913 0.00650391 6.03915C0.0847852 4.53915 1.27822 3.34565 2.77822 3.26743C2.83037 3.26093 2.88258 3.26093 2.93473 3.26093H27.0652C27.1173 3.26093 27.176 3.26093 27.2282 3.26743C28.7217 3.34571 29.9152 4.53915 29.9934 6.03264C30 6.08479 30 6.1435 30 6.19565Z" fill="#E6F3FF"/>
    <path d="M27.2283 3.26737C27.176 3.26086 27.1175 3.26086 27.0652 3.26086H15V26.7391H27.0652C28.6891 26.7391 30 25.4283 30 23.8044V6.19565C30 6.1435 30 6.08479 29.9935 6.03258C29.9152 4.53915 28.7217 3.34565 27.2283 3.26737Z" fill="#CFDBE6"/>
    <path d="M29.9935 6.03264C29.9152 4.53914 28.7218 3.3457 27.2283 3.26742C22.435 8.06069 19.7432 10.7525 15 15.4956C13.2006 13.6952 4.54746 5.0366 2.77828 3.26736C1.27828 3.34565 0.0847852 4.53908 0.0065625 6.03908C0 6.09129 0 6.1435 0 6.19565V23.8044C0 25.4283 1.31086 26.7391 2.93479 26.7391H3.91307V9.94565L13.6174 19.6435C13.9957 20.0283 14.4979 20.2174 15.0001 20.2174C15.5022 20.2174 16.0044 20.0283 16.3827 19.6435L26.0871 9.93914V26.7391H27.0653C28.6893 26.7391 30.0001 25.4283 30.0001 23.8044V6.19565C30 6.1435 30 6.08479 29.9935 6.03264Z" fill="#FF4B26"/>
    <path d="M16.3826 19.6435L26.0869 9.93914V26.7391H27.0652C28.6891 26.7391 30 25.4283 30 23.8044V6.19565C30 6.1435 30 6.08479 29.9935 6.03258C29.9152 4.53908 28.7218 3.34565 27.2283 3.26736C22.435 8.06069 19.7432 10.7525 15 15.4956V20.2174C15.5021 20.2174 16.0044 20.0283 16.3826 19.6435Z" fill="#D93F21"/>
  </g>
  <defs>
    <clipPath id="clip0_666_413">
      <rect width="30" height="30" fill="white"/>
    </clipPath>
  </defs>
</svg>