<svg width="184" height="64" viewBox="0 0 184 64" fill="none" xmlns="http://www.w3.org/2000/svg">
<path d="M41.7647 49.9426H21.2231V0.302246H41.7647V49.9426ZM22.1859 48.9798H40.8019V1.26502H22.1859V48.9798Z" fill="white"/>
<path d="M22.1859 63.3676H0.52002V44.718L41.2328 18.6354L41.7512 19.4501L1.4828 45.2499V62.4048H21.2231V49.4578H22.1859V63.3676Z" fill="white"/>
<path d="M31.1673 6.40881H27.8884V9.68765H31.1673V6.40881Z" fill="#41BB9F"/>
<path d="M35.6041 6.40881H32.3253V9.68765H35.6041V6.40881Z" fill="#41BB9F"/>
<path d="M31.1673 10.8457H27.8884V14.1245H31.1673V10.8457Z" fill="#41BB9F"/>
<path d="M35.6041 10.8457H32.3253V14.1245H35.6041V10.8457Z" fill="#41BB9F"/>
<path d="M66.2717 19.6318H56.1726V49.4106H57.3306V36.8339H66.2717C72.56 36.8339 76.3102 33.6157 76.3102 28.2295C76.3102 22.8433 72.56 19.6318 66.2717 19.6318ZM66.2717 35.6759H57.3104V20.7899H66.2717C71.9204 20.7899 75.1521 23.483 75.1521 28.1959C75.1521 32.9088 71.9204 35.6759 66.2717 35.6759Z" fill="white"/>
<path d="M98.5417 43.8697C97.6651 41.7952 96.6715 39.7722 95.5658 37.8102C95.0258 36.8862 94.2905 36.0912 93.4113 35.4807L92.6707 35.0431L93.5191 34.9354C95.2206 34.7709 96.8068 34.0017 97.9896 32.7674C99.1139 31.5623 99.6862 29.7445 99.6862 27.3813C99.6862 24.5266 98.8985 22.5606 97.2894 21.369C95.6803 20.1773 93.3777 19.605 90.5567 19.605H81.656V20.763H90.523C93.0478 20.763 95.0406 21.241 96.4478 22.1971C97.8549 23.1531 98.5349 24.9508 98.5349 27.3813C98.5349 29.8118 97.8617 31.495 96.5151 32.4712C95.1686 33.4474 93.1959 33.9659 90.7384 33.9659H81.656V35.1239H88.6513C90.1576 35.067 91.6402 35.5122 92.866 36.3896C93.9634 37.2245 95.2561 39.352 96.9393 43.1224C98.2454 45.9972 99.1139 47.9632 99.5852 49.0202L99.7737 49.4646H100.992C100.575 48.4614 99.767 46.6166 98.5417 43.8697Z" fill="#41BB9F"/>
<path d="M116.632 19.6318H106.533V49.4106H107.691V36.8339H116.653C122.934 36.8339 126.684 33.6157 126.684 28.2295C126.684 22.8433 122.914 19.6318 116.632 19.6318ZM116.632 35.6759H107.671V20.7899H116.632C122.268 20.7899 125.506 23.483 125.506 28.1959C125.506 32.9088 122.268 35.6759 116.632 35.6759Z" fill="white"/>
<path d="M127.849 19.6318V20.7899H139.968V49.4106H141.126V20.7899H153.245V19.6318H127.849Z" fill="white"/>
<path d="M182.566 19.6319L170.454 35.3124L158.382 19.6319H156.908L169.875 36.4636V49.4107H171.033V36.4569L184 19.6251L182.566 19.6319Z" fill="white"/>
</svg>
